v 1 0 0
v 0.7071067690849304 0 0.7071067690849304
v 6.123234262925839e-17 0 1
v -0.7071067690849304 0 0.7071067690849304
v -1 0 1.2246468525851679e-16
v -0.7071067690849304 0 -0.7071067690849304
v -1.8369701465288538e-16 0 -1
v 0.7071067690849304 0 -0.7071067690849304
v 0.800000011920929 6 0
v 0.5656854510307312 6 0.5656854510307312
v 4.8985870794684264e-17 6 0.800000011920929
v -0.5656854510307312 6 0.5656854510307312
v -0.800000011920929 6 9.797174158936853e-17
v -0.5656854510307312 6 -0.5656854510307312
v -1.4695762231022014e-16 6 -0.800000011920929
v 0.5656854510307312 6 -0.5656854510307312
v 0 0 0
v 0 6 0
vn 0.9234417676925659 0.030781390145421028 0.38250207901000977
vn 0.9234417080879211 0.03078138455748558 0.38250210881233215
vn 0.38250207901000977 0.03078138455748558 0.9234417676925659
vn 0.38250210881233215 0.030781390145421028 0.9234417080879211
vn -0.38250207901000977 0.030781390145421028 0.9234417676925659
vn -0.38250210881233215 0.03078138455748558 0.9234417080879211
vn -0.9234417676925659 0.03078138455748558 0.38250207901000977
vn -0.9234417080879211 0.030781390145421028 0.38250210881233215
vn -0.9234417676925659 0.030781390145421028 -0.38250207901000977
vn -0.9234417080879211 0.03078138455748558 -0.38250210881233215
vn -0.38250207901000977 0.03078138455748558 -0.9234417676925659
vn -0.38250210881233215 0.030781390145421028 -0.9234417080879211
vn 0.38250207901000977 0.030781390145421028 -0.9234417676925659
vn 0.38250210881233215 0.03078138455748558 -0.9234417080879211
vn 0.9234417676925659 0.03078138455748558 -0.38250207901000977
vn 0.9234417080879211 0.030781390145421028 -0.38250210881233215
vn 0 -1 0
vn 0 -1 0
vn 0 -1 0
vn 0 -1 0
vn 0 -1 0
vn 0 -1 0
vn 0 -1 0
vn 0 -1 0
vn 0 1 0
vn 0 1 0
vn 0 1 0
vn 0 1 0
vn 0 1 0
vn 0 1 0
vn 0 1 0
vn 0 1 0
f 1//1 9//1 10//1
f 1//2 10//2 2//2
f 2//3 10//3 11//3
f 2//4 11//4 3//4
f 3//5 11//5 12//5
f 3//6 12//6 4//6
f 4//7 12//7 13//7
f 4//8 13//8 5//8
f 5//9 13//9 14//9
f 5//10 14//10 6//10
f 6//11 14//11 15//11
f 6//12 15//12 7//12
f 7//13 15//13 16//13
f 7//14 16//14 8//14
f 8//15 16//15 9//15
f 8//16 9//16 1//16
f 17//17 1//17 2//17
f 17//18 2//18 3//18
f 17//19 3//19 4//19
f 17//20 4//20 5//20
f 17//21 5//21 6//21
f 17//22 6//22 7//22
f 17//23 7//23 8//23
f 17//24 8//24 1//24
f 18//25 10//25 9//25
f 18//26 11//26 10//26
f 18//27 12//27 11//27
f 18//28 13//28 12//28
f 18//29 14//29 13//29
f 18//30 15//30 14//30
f 18//31 16//31 15//31
f 18//32 9//32 16//32
