v 8 0 0
v -4 0 6.928203105926514
v -4 0 -6.928203105926514
v 8 10 0
v -4 10 6.928203105926514
v -4 10 -6.928203105926514
v 0 0 0
v 0 10 0
vn 0.4999999701976776 0 0.8660253882408142
vn 0.4999999701976776 0 0.8660253882408142
vn -1 0 0
vn -1 0 0
vn 0.4999999701976776 0 -0.8660253882408142
vn 0.4999999701976776 0 -0.8660253882408142
vn 0 -1 0
vn 0 -1 0
vn 0 -1 0
vn 0 1 0
vn 0 1 0
vn 0 1 0
f 1//1 4//1 5//1
f 1//2 5//2 2//2
f 2//3 5//3 6//3
f 2//4 6//4 3//4
f 3//5 6//5 4//5
f 3//6 4//6 1//6
f 7//7 1//7 2//7
f 7//8 2//8 3//8
f 7//9 3//9 1//9
f 8//10 5//10 4//10
f 8//11 6//11 5//11
f 8//12 4//12 6//12
